{
  "accessors": [
    {
      "bufferView": 2,
      "componentType": 5126,
      "count": 5432,
      "max": [
        -40.0874137878418,
        50.94910430908203,
        3.6243696212768555
      ],
      "min": [
        -44.60093307495117,
        44.44347381591797,
        -1.7852015495300293
      ],
      "type": "VEC3"
    },
    {
      "bufferView": 2,
      "byteOffset": 65184,
      "componentType": 5126,
      "count": 5432,
      "max": [
        0.9999008178710938,
        0.9999410510063171,
        0.9997267127037048
      ],
      "min": [
        -0.9999008178710938,
        -0.9999187588691711,
        -0.9983291029930115
      ],
      "type": "VEC3"
    },
    {
      "bufferView": 1,
      "componentType": 5126,
      "count": 5432,
      "max": [
        0.7650359869003296,
        0.9873620271682739
      ],
      "min": [
        0.23496399819850922,
        0.6233470439910889
      ],
      "type": "VEC2"
    },
    {
      "bufferView": 0,
      "componentType": 5125,
      "count": 8148,
      "type": "SCALAR"
    },
    {
      "bufferView": 2,
      "byteOffset": 130368,
      "componentType": 5126,
      "count": 3612,
      "max": [
        -46.75827407836914,
        40.15415954589844,
        2.466864585876465
      ],
      "min": [
        -60.02901840209961,
        28.244216918945313,
        -2.3485007286071777
      ],
      "type": "VEC3"
    },
    {
      "bufferView": 2,
      "byteOffset": 173712,
      "componentType": 5126,
      "count": 3612,
      "max": [
        0.9931676387786865,
        0.9996899366378784,
        1.0
      ],
      "min": [
        -0.9975445866584778,
        -0.9987537264823914,
        -1.0
      ],
      "type": "VEC3"
    },
    {
      "bufferView": 1,
      "byteOffset": 43456,
      "componentType": 5126,
      "count": 3612,
      "max": [
        0.4831629991531372,
        0.6620630025863647
      ],
      "min": [
        0.0014309999532997608,
        0.0014389753341674805
      ],
      "type": "VEC2"
    },
    {
      "bufferView": 0,
      "byteOffset": 32592,
      "componentType": 5125,
      "count": 5460,
      "type": "SCALAR"
    },
    {
      "bufferView": 2,
      "byteOffset": 217056,
      "componentType": 5126,
      "count": 2962,
      "max": [
        -42.63779830932617,
        25.03472900390625,
        3.6826300621032715
      ],
      "min": [
        -46.91461181640625,
        2.477083444595337,
        -4.265799522399902
      ],
      "type": "VEC3"
    },
    {
      "bufferView": 2,
      "byteOffset": 252600,
      "componentType": 5126,
      "count": 2962,
      "max": [
        0.999566912651062,
        0.999933123588562,
        0.9986113905906677
      ],
      "min": [
        -0.9998291730880737,
        -1.0,
        -0.9947482347488403
      ],
      "type": "VEC3"
    },
    {
      "bufferView": 1,
      "byteOffset": 72352,
      "componentType": 5126,
      "count": 2962,
      "max": [
        0.3089039921760559,
        0.9976540207862854
      ],
      "min": [
        0.0033859999384731054,
        0.005660057067871094
      ],
      "type": "VEC2"
    },
    {
      "bufferView": 0,
      "byteOffset": 54432,
      "componentType": 5125,
      "count": 4446,
      "type": "SCALAR"
    },
    {
      "bufferView": 2,
      "byteOffset": 288144,
      "componentType": 5126,
      "count": 3188,
      "max": [
        -55.55910873413086,
        32.719390869140625,
        2.466864585876465
      ],
      "min": [
        -60.02901840209961,
        28.244216918945313,
        -2.3485007286071777
      ],
      "type": "VEC3"
    },
    {
      "bufferView": 2,
      "byteOffset": 326400,
      "componentType": 5126,
      "count": 3188,
      "max": [
        0.9931676387786865,
        0.9996899366378784,
        1.0
      ],
      "min": [
        -0.9975445866584778,
        -0.9987537264823914,
        -1.0
      ],
      "type": "VEC3"
    },
    {
      "bufferView": 1,
      "byteOffset": 96048,
      "componentType": 5126,
      "count": 3188,
      "max": [
        0.4831629991531372,
        0.6620630025863647
      ],
      "min": [
        0.0014309999532997608,
        0.0014389753341674805
      ],
      "type": "VEC2"
    },
    {
      "bufferView": 0,
      "byteOffset": 72216,
      "componentType": 5125,
      "count": 4824,
      "type": "SCALAR"
    },
    {
      "bufferView": 2,
      "byteOffset": 364656,
      "componentType": 5126,
      "count": 2394,
      "max": [
        -44.088584899902344,
        7.100728511810303,
        3.6826300621032715
      ],
      "min": [
        -46.54216384887695,
        2.477083444595337,
        -3.0159177780151367
      ],
      "type": "VEC3"
    },
    {
      "bufferView": 2,
      "byteOffset": 393384,
      "componentType": 5126,
      "count": 2394,
      "max": [
        0.999566912651062,
        0.999933123588562,
        0.9981599450111389
      ],
      "min": [
        -0.9998291730880737,
        -1.0,
        -0.9947482347488403
      ],
      "type": "VEC3"
    },
    {
      "bufferView": 1,
      "byteOffset": 121552,
      "componentType": 5126,
      "count": 2394,
      "max": [
        0.3089039921760559,
        0.9976540207862854
      ],
      "min": [
        0.004191000014543533,
        0.005660057067871094
      ],
      "type": "VEC2"
    },
    {
      "bufferView": 0,
      "byteOffset": 91512,
      "componentType": 5125,
      "count": 3594,
      "type": "SCALAR"
    }
  ],
  "asset": {
    "extras": {
      "author": "pnhtuan (https://sketchfab.com/pnhtuan7)",
      "license": "CC-BY-4.0 (http://creativecommons.org/licenses/by/4.0/)",
      "source": "https://sketchfab.com/3d-models/arms-hands-head-legs-and-feet-low-poly-female-9ba2de9a0e4941da9ac55d43b8652a4b",
      "title": "Arms_hands_head_legs and feet ( low poly)_Female"
    },
    "generator": "Sketchfab-15.46.0",
    "version": "2.0"
  },
  "bufferViews": [
    {
      "buffer": 0,
      "byteLength": 105888,
      "name": "floatBufferViews",
      "target": 34963
    },
    {
      "buffer": 0,
      "byteLength": 140704,
      "byteOffset": 105888,
      "byteStride": 8,
      "name": "floatBufferViews",
      "target": 34962
    },
    {
      "buffer": 0,
      "byteLength": 422112,
      "byteOffset": 246592,
      "byteStride": 12,
      "name": "floatBufferViews",
      "target": 34962
    }
  ],
  "buffers": [
    {
      "byteLength": 668704,
      "uri": "scene.bin"
    }
  ],
  "materials": [
    {
      "doubleSided": true,
      "name": "lambert1",
      "pbrMetallicRoughness": {
        "metallicFactor": 0.0,
        "roughnessFactor": 0.6
      }
    }
  ],
  "meshes": [
    {
      "name": "polySurface1_lambert1_0",
      "primitives": [
        {
          "attributes": {
            "NORMAL": 1,
            "POSITION": 0,
            "TEXCOORD_0": 2
          },
          "indices": 3,
          "material": 0,
          "mode": 4
        }
      ]
    },
    {
      "name": "polySurface6_lambert1_0",
      "primitives": [
        {
          "attributes": {
            "NORMAL": 5,
            "POSITION": 4,
            "TEXCOORD_0": 6
          },
          "indices": 7,
          "material": 0,
          "mode": 4
        }
      ]
    },
    {
      "name": "polySurface7_lambert1_0",
      "primitives": [
        {
          "attributes": {
            "NORMAL": 9,
            "POSITION": 8,
            "TEXCOORD_0": 10
          },
          "indices": 11,
          "material": 0,
          "mode": 4
        }
      ]
    },
    {
      "name": "polySurface8_lambert1_0",
      "primitives": [
        {
          "attributes": {
            "NORMAL": 13,
            "POSITION": 12,
            "TEXCOORD_0": 14
          },
          "indices": 15,
          "material": 0,
          "mode": 4
        }
      ]
    },
    {
      "name": "polySurface9_lambert1_0",
      "primitives": [
        {
          "attributes": {
            "NORMAL": 17,
            "POSITION": 16,
            "TEXCOORD_0": 18
          },
          "indices": 19,
          "material": 0,
          "mode": 4
        }
      ]
    }
  ],
  "nodes": [
    {
      "children": [
        1
      ],
      "matrix": [
        1.0,
        0.0,
        0.0,
        0.0,
        0.0,
        2.220446049250313e-16,
        -1.0,
        0.0,
        0.0,
        1.0,
        2.220446049250313e-16,
        0.0,
        0.0,
        0.0,
        0.0,
        1.0
      ],
      "name": "Sketchfab_model"
    },
    {
      "children": [
        2
      ],
      "matrix": [
        0.009999999776482582,
        0.0,
        0.0,
        0.0,
        0.0,
        0.0,
        0.009999999776482582,
        0.0,
        0.0,
        -0.009999999776482582,
        0.0,
        0.0,
        0.0,
        0.0,
        0.0,
        1.0
      ],
      "name": "241fa96146154dd3bea68869b89083ef.fbx"
    },
    {
      "children": [
        3
      ],
      "name": "RootNode"
    },
    {
      "children": [
        4
      ],
      "name": "group"
    },
    {
      "children": [
        5
      ],
      "matrix": [
        0.9999998886062916,
        -2.81673537236822e-05,
        -0.0004711623971615892,
        0.0,
        -2.8167353723694703e-05,
        0.9928775168053553,
        -0.11913956449908439,
        0.0,
        0.00047116239716158846,
        0.11913956449908439,
        0.992877405411647,
        0.0,
        28.78085708618164,
        0.08057111501693726,
        3.1551144123077393,
        1.0
      ],
      "name": "pasted__model"
    },
    {
      "children": [
        6,
        8,
        10,
        12,
        14
      ],
      "matrix": [
        1.0,
        -6.776263578034403e-21,
        1.0842021724855044e-19,
        0.0,
        6.776263578034403e-21,
        1.0,
        0.0,
        0.0,
        -1.0842021724855044e-19,
        7.346839692639297e-40,
        1.0,
        0.0,
        0.0,
        0.0,
        0.0,
        1.0
      ],
      "name": "pasted__Girl_base_mesh1"
    },
    {
      "children": [
        7
      ],
      "matrix": [
        1.0,
        0.0,
        1.0842021724855044e-19,
        0.0,
        0.0,
        1.0,
        0.0,
        0.0,
        -1.0842021724855044e-19,
        0.0,
        1.0,
        0.0,
        15.409012794494629,
        -34.00568771362305,
        -4.073173999786377,
        1.0
      ],
      "name": "polySurface1"
    },
    {
      "mesh": 0,
      "name": "polySurface1_lambert1_0"
    },
    {
      "children": [
        9
      ],
      "matrix": [
        1.0,
        0.0,
        1.0842021724855044e-19,
        0.0,
        0.0,
        1.0,
        0.0,
        0.0,
        -1.0842021724855044e-19,
        0.0,
        1.0,
        0.0,
        18.879745483398438,
        -18.23443031311035,
        -2.179067373275757,
        1.0
      ],
      "name": "polySurface6"
    },
    {
      "mesh": 1,
      "name": "polySurface6_lambert1_0"
    },
    {
      "children": [
        11
      ],
      "matrix": [
        1.0,
        0.0,
        1.0842021724855044e-19,
        0.0,
        0.0,
        1.0,
        0.0,
        0.0,
        -1.0842021724855044e-19,
        0.0,
        1.0,
        0.0,
        24.102380752563477,
        -0.1798507124185562,
        -0.010143447667360306,
        1.0
      ],
      "name": "polySurface7"
    },
    {
      "mesh": 2,
      "name": "polySurface7_lambert1_0"
    },
    {
      "children": [
        13
      ],
      "matrix": [
        0.004690225765466738,
        0.7656448941304275,
        -0.6432463741633335,
        0.0,
        -0.005582545191303856,
        0.6432634733077935,
        0.7656245418592462,
        0.0,
        0.9999734181324301,
        7.382983113757291e-15,
        0.0072912981384659625,
        0.0,
        -31.729206085205078,
        34.84617233276367,
        -62.648193359375,
        1.0
      ],
      "name": "polySurface8"
    },
    {
      "mesh": 3,
      "name": "polySurface8_lambert1_0"
    },
    {
      "children": [
        15
      ],
      "matrix": [
        0.7581262904769325,
        -0.6399093498409788,
        -0.12554103581610956,
        0.0,
        0.5326495514328494,
        0.49660000442759245,
        0.685326849730039,
        0.0,
        -0.3762033798971909,
        -0.5864336787639427,
        0.7173329473580026,
        0.0,
        5.2237653732299805,
        -26.57120132446289,
        -8.88940715789795,
        1.0
      ],
      "name": "polySurface9"
    },
    {
      "mesh": 4,
      "name": "polySurface9_lambert1_0"
    }
  ],
  "scene": 0,
  "scenes": [
    {
      "name": "Sketchfab_Scene",
      "nodes": [
        0
      ]
    }
  ]
}
